<svg width="207" height="52" viewBox="0 0 207 52" fill="none" xmlns="http://www.w3.org/2000/svg">
<path d="M172.145 20.2535C169.771 20.2535 167.677 21.7329 166.91 23.9247L164.201 31.7466C165.22 30.322 166.896 29.4316 168.738 29.4316H189.622L192.805 20.2672H172.159L172.145 20.2535Z" fill="#1C9AD6"/>
<path d="M206.416 6.5H176.905C174.532 6.5 172.438 7.97945 171.67 10.1712L168.962 17.9932C169.981 16.5685 171.656 15.6781 173.499 15.6781H203.233L206.416 6.5Z" fill="#E44E39"/>
<path d="M196.924 34.0069H167.412C165.039 34.0069 162.945 35.4864 162.177 37.6782L159.469 45.5001C160.488 44.0754 162.163 43.185 164.006 43.185H193.741L196.924 34.0069Z" fill="white"/>
<path d="M27.6311 30.0755C27.6311 22.6371 22.1728 16.8426 14.425 16.8426C6.67722 16.8426 0.828003 22.6919 0.828003 30.2946C0.828003 37.8974 6.73306 43.8015 14.7042 43.8015C19.1993 43.8015 23.136 41.8974 25.565 38.6508L20.8187 35.6508C19.5343 37.5686 17.3147 38.4453 14.6902 38.4453C10.7256 38.4453 7.61254 36.0481 6.94246 32.3768H27.5055C27.673 31.5549 27.6172 30.8974 27.6172 30.0755M7.05414 27.7193C7.5567 24.2809 10.6279 22.0344 14.411 22.0344C18.1942 22.0344 20.7628 24.2809 21.3771 27.7193H7.05414Z" fill="white"/>
<path d="M38.9806 6.5H33.0755V43.0753H38.9806V6.5Z" fill="white"/>
<path d="M64.1085 35.1576C62.7683 37.2946 60.437 38.4453 57.7567 38.4453C53.136 38.4453 49.8973 34.8974 49.8973 30.2946C49.8973 25.6919 53.122 22.1987 57.7567 22.1987C60.4231 22.1987 62.7544 23.3357 64.0945 25.459L68.7711 22.5001C66.37 18.9522 62.3774 16.8289 57.7567 16.8289C49.9531 16.8289 43.9922 22.5686 43.9922 30.2809C43.9922 37.9933 49.9531 43.7878 57.7567 43.7878C62.3774 43.7878 66.37 41.6645 68.7711 38.1029L64.0945 35.1439L64.1085 35.1576Z" fill="white"/>
<path d="M100.572 30.3357C100.572 38.0481 94.5552 43.7878 86.6957 43.7878C78.8362 43.7878 72.7637 38.0481 72.7637 30.3357C72.7637 22.6234 78.7246 16.8289 86.6957 16.8289C94.6668 16.8289 100.572 22.5686 100.572 30.3357ZM94.6668 30.3357C94.6668 25.6371 91.3723 22.185 86.6957 22.185C82.0191 22.185 78.6687 25.6234 78.6687 30.3357C78.6687 35.0481 82.061 38.4316 86.6957 38.4316C91.3304 38.4316 94.6668 34.9385 94.6668 30.3357Z" fill="white"/>
<path d="M138.208 22.2947C134.481 22.2947 131.13 25.2536 131.13 30.0619V43.1852H125.225V28.692C125.225 24.7605 123.215 22.2947 118.985 22.2947C115.258 22.2947 111.963 25.3084 111.963 29.9523V43.1852H106.058V17.6509H111.963V20.0071C113.471 18.3084 116.305 16.9386 119.879 16.9386C124.276 16.9386 127.403 18.3632 129.357 21.2536C131.368 18.7879 134.592 16.9386 139.059 16.9386C145.914 16.9386 150.367 21.3084 150.367 27.9249V43.1852H144.462V28.692C144.462 24.7605 142.452 22.2947 138.222 22.2947" fill="white"/>
</svg>
