<?xml version="1.0" encoding="utf-8"?>
<!-- Generator: Adobe Illustrator 24.0.0, SVG Export Plug-In . SVG Version: 6.00 Build 0)  -->
<svg version="1.1" id="Layer_1" xmlns="http://www.w3.org/2000/svg" xmlns:xlink="http://www.w3.org/1999/xlink" x="0px" y="0px"
	 viewBox="0 0 1500 571" style="enable-background:new 0 0 1500 571;" xml:space="preserve">
<style type="text/css">
	.st0{fill:#282C69;}
	.st1{fill:#0E9AD6;}
	.st2{fill:#DB342D;}
</style>
<g>
	<path class="st0" d="M1344.1,339l-19.5,57.2h-190.5c-11.9,0-22.7,6.2-28.8,16c-0.1,0.1-1,1.6-1.1,1.3c-0.1-0.2,0-0.6,0.1-0.9
		c0-0.1,0.1-0.4,0.1-0.4l17.1-50.3c4.7-13.7,17.6-22.9,32.1-22.9H1344.1z"/>
	<path class="st1" d="M1318.1,247.9l-19.5,57.3h-133.8c-11.9,0-22.7,6.2-28.8,16c-0.1,0.1-1,1.6-1.1,1.3c-0.1-0.2,0-0.6,0-0.9
		c0-0.1,0.1-0.4,0.1-0.4l17.1-50.3c4.7-13.7,17.6-22.9,32.1-22.9L1318.1,247.9L1318.1,247.9z"/>
	<path class="st2" d="M1405.5,156.7L1386,214h-190.5c-11.9,0-22.7,6.2-28.8,16c-0.1,0.1-1,1.6-1.1,1.3c-0.1-0.2,0-0.6,0.1-0.9
		c0-0.1,0.1-0.4,0.1-0.4l17.1-50.3c4.7-13.7,17.6-22.9,32.1-22.9L1405.5,156.7L1405.5,156.7z"/>
	<path class="st0" d="M266.7,311.2c0-48.7-35.1-86.7-84.9-86.7c-51.2,0-87.4,38.4-87.4,88.2c0,51.2,38,88.5,89.2,88.5
		c28.9,0,54.2-12.5,69.9-33.7L223,347.7c-8.2,12.5-22.6,18.3-39.4,18.3c-25.5,0-45.5-15.7-49.8-39.8H266
		C267.1,320.8,266.7,316.5,266.7,311.2 M134.5,295.7c3.2-22.6,22.9-37.3,47.3-37.3c24.4,0,40.9,14.7,44.8,37.3H134.5z"/>
	<rect x="300.3" y="156.7" class="st0" width="38" height="239.7"/>
	<path class="st0" d="M499.9,344.5c-8.6,14-23.6,21.5-40.8,21.5c-29.8,0-50.5-23.3-50.5-53.4c0-30.4,20.8-53,50.5-53
		c17.1,0,32.2,7.5,40.7,21.4l30.1-19.4c-15.5-23.2-41.1-37.2-70.8-37.2c-50.2,0-88.5,37.6-88.5,88.2c0,50.9,38.4,88.5,88.5,88.5
		c29.7,0,55.4-13.9,70.9-37.2L499.9,344.5z"/>
	<path class="st0" d="M733,313c0,50.5-38.7,88.2-89.2,88.2c-51.2,0-89.6-37.6-89.6-88.2c0-50.9,38.3-88.5,89.6-88.5
		C694.3,224.4,733,262.1,733,313 M695,313c0-30.8-21.1-53.4-51.2-53.4c-29.7,0-51.6,22.6-51.6,53.4c0,30.1,21.9,53,51.6,53
		C673.8,366,695,343.1,695,313"/>
	<path class="st0" d="M973.1,259.6c-24,0-45.5,19.4-45.5,50.9v86h-38v-95c0-25.8-12.9-41.9-40.1-41.9c-24,0-45.2,19.7-45.2,50.2
		v86.7h-38V229.1h38v15.4c9.7-11.1,28-20.1,50.9-20.1c28.3,0,48.4,9.3,60.9,28.3c12.9-16.1,33.7-28.3,62.4-28.3
		c44.1,0,72.7,28.7,72.7,72v100h-38v-95C1013.2,275.7,1000.3,259.6,973.1,259.6"/>
</g>
</svg>
